<svg width="261" height="268" viewBox="0 0 261 268" fill="none" xmlns="http://www.w3.org/2000/svg">
<path d="M67.1534 186.881C62.151 182.14 55.0827 171.148 51.2007 165.068C51.1291 164.957 51.0575 164.846 50.986 164.735C50.068 163.298 49.1529 161.957 48.0856 160.392C45.5423 156.647 42.0807 151.625 35.5661 140.52C34.5421 139.038 33.5138 137.536 32.5164 136.063C31.4072 134.424 30.3278 132.811 29.2558 131.189C21.5357 119.211 13.3908 107.337 7.44987 91.7518C4.66618 84.4991 2.33208 75.8524 1.37369 67.8349C0.184711 56.1113 -1.30176 46.5482 2.07531 30.872C5.34492 20.3908 12.2255 16.1774 16.3086 13.1798C22.2888 9.00412 28.835 7.57738 34.212 7.17244C34.9041 7.09593 35.6025 7.0338 36.2943 6.98574C46.4498 6.34326 56.0586 8.22517 63.5286 9.94984C67.8619 10.9539 70.9699 12.6631 73.1581 14.021C78.815 17.708 81.7138 20.5354 84.5905 22.989C87.4888 25.5223 89.7597 27.6898 91.8002 29.6637C97.4798 34.6076 102.935 39.5911 108.371 44.7374C114.082 50.1219 120.127 56.5686 124.662 63.5372C131.303 75.7908 132.368 82.8568 136.292 91.3052C136.217 91.1665 136.133 90.9669 135.765 90.4397C135.539 90.1262 135.219 89.7161 134.691 89.2228C134.253 88.8003 132.96 87.7513 131.243 87.2432C129.542 86.6371 126.72 86.7671 125.077 87.5392C123.632 88.1516 122.79 88.8894 122.234 89.4431C121.384 90.3253 121.156 90.833 121.047 91.0176C120.816 91.4771 120.912 91.3539 120.963 91.2141C121.029 91.0524 121.122 90.7841 121.217 90.4739C121.608 89.1953 121.991 87.5198 122.347 85.8249C123.061 82.3945 123.694 78.7751 124.347 75.1002C125.424 69.1936 126.326 63.3628 128.134 56.7192C129.348 52.4349 130.9 48.2182 132.725 44.1855C134.912 39.3244 137.542 34.7298 140.062 30.5423C142.781 25.9553 146.569 21.6357 150.82 18.3419C155.901 14.0697 161.104 11.2603 165.719 8.98625C169.561 7.11564 173.092 5.62495 176.316 4.34885C179.288 3.22249 182.006 2.59044 184.329 2.168C189.468 1.26294 194.158 0.984413 198.748 0.693816C206.468 0.227727 214.079 0.117501 220.387 0.159302C222.031 0.169872 223.608 0.189532 225.055 0.213495C227.193 0.126138 229.355 0.0563831 231.547 0.0208063C232.644 0.00351238 233.748 -0.00598145 234.914 0.00410843C235.511 0.0100403 236.072 0.0183582 236.74 0.0422678C237.458 0.0803928 237.883 0.0535316 239.413 0.264038C248.302 1.74947 252.692 7.98215 255.192 11.4999C255.46 12.1154 255.698 12.7153 255.915 13.2997C256.057 13.6821 256.196 14.0577 256.331 14.42C260.422 26.0672 259.65 32.8093 260.119 46.0327C260.125 49.3403 260.06 52.9271 259.83 56.8893C259.452 62.4996 257.145 66.4426 255.505 69.4982C254.992 70.4227 254.55 71.1612 254.167 71.7829C251.375 76.2288 249.781 76.9516 248.287 78.2452C247.75 78.6607 247.246 79.0416 246.756 79.4385C245.086 80.7857 243.907 82.6639 242.496 84.8394C240.663 87.6614 238.404 91.018 234.271 94.1595C232.534 95.48 230.952 96.7175 229.502 97.8923C219.293 105.93 215.426 110.156 212.508 113.951C211.521 115.196 210.639 116.321 209.663 117.37C207.956 119.202 205.667 121.182 203.326 123.085C201.297 124.735 199.192 126.342 197.316 127.709C194.078 130.046 188.865 136.089 185.309 140.971C183.957 142.814 181.892 145.073 179.515 147.776C178.382 149.065 177.178 150.456 175.957 151.943C174.528 153.684 173.082 155.551 171.69 157.559C165.456 166.608 162.811 171.742 160.667 175.888C160.582 176.056 160.499 176.221 160.417 176.384C159.814 177.587 159.275 178.703 158.763 179.818C157.135 183.344 155.334 187.639 153.861 192.218C153.281 194.007 152.743 195.837 152.254 197.662C151.252 201.411 150.443 205.178 149.896 208.313C148.472 213.401 147.159 218.652 146.063 223.752L146.153 223.167C144.883 230.95 143.189 238.459 141.298 245.842C139.703 252.055 137.107 257.713 134.103 261.757L134.119 261.698C133.892 262.003 133.665 262.289 133.438 262.565C130.159 266.529 127.471 267.467 124.549 267.66C121.63 267.747 119.095 263.892 118.331 258.711C118.268 258.342 118.212 257.967 118.164 257.578L118.176 257.532C117.532 252.681 117.854 246.784 118.943 240.884C120.239 233.873 121.316 226.855 121.989 219.98L122.065 219.485C123.008 213.141 124.167 207.003 125.576 200.789C126.385 197.245 127.278 193.693 128.335 190.086C130.942 181.012 134.916 171.717 139.689 163.559C141.931 159.669 144.373 155.853 146.952 152.197C150.652 146.948 154.606 141.997 158.666 137.268C162.392 132.929 166.22 128.745 170.135 124.66C170.978 123.782 171.823 122.91 172.675 122.041C177.616 116.074 182.795 110.289 187.31 105.712C188.612 104.392 189.851 103.185 190.997 102.106C195.282 98.0791 198.746 95.7216 201.639 93.7326C203.633 92.3666 205.37 91.1831 206.94 89.821C207.782 89.0895 208.909 88.08 210.212 86.8763C211.57 85.6194 213.118 84.1525 214.675 82.5711C219.822 77.3492 226.634 70.6082 232.113 65.0157C232.786 64.3237 233.455 63.6285 234.038 63.0056C234.608 62.4131 235.15 61.736 235.184 61.8737C237.284 58.598 238.862 56.2491 239.212 55.8079C239.294 55.7287 239.353 55.7228 239.413 55.766C240.558 48.621 241.062 41.8682 240.67 38.492C240.363 35.776 240.104 32.9217 239.764 30.2701C239.594 28.9521 239.4 27.6822 239.185 26.6249C239.001 25.6058 238.64 24.657 238.825 24.9031C238.31 23.9494 237.863 23.1346 237.458 22.457C236.779 21.3075 236.203 20.5867 235.97 20.33C235.714 20.0652 235.962 20.2074 236.163 20.2129C236.469 20.2557 236.239 20.2207 236.102 20.2136C235.938 20.2014 235.721 20.19 235.518 20.183C235.083 20.1674 234.647 20.1647 234.196 20.1718C233.317 20.1872 232.517 20.2455 231.814 20.3446C228.018 20.8902 224.694 20.708 219.722 20.5245C216.274 20.4027 212.02 20.2899 206.233 20.5317C204.038 20.624 202.053 20.6874 200.22 20.7309C196.451 20.8216 193.455 20.7927 190.896 20.8347C187.376 20.8969 184.665 21.0655 182.176 21.9343C180.471 22.5273 178.712 23.2439 176.824 24.1808C170.649 27.2018 165.045 30.4551 161.524 33.0702C159.868 34.2592 158.294 35.8557 156.908 37.7886C156.429 38.4542 155.969 39.1599 155.524 39.9029C153.911 42.5843 152.383 45.1357 150.947 47.4699C149.346 50.0653 147.83 52.0908 146.546 53.9671C146.146 54.5495 145.77 55.1217 145.426 55.6801C144.782 57.4511 144.213 59.2413 143.716 61.0631C143.59 61.5274 143.451 62.0768 143.332 62.5744C143.329 62.9653 143.325 63.4149 143.332 63.8467C143.35 66.0905 143.439 68.9455 143.148 72.477C142.682 78.0849 141.636 82.9979 140.307 88.3908C139.83 90.3011 139.336 92.2511 138.663 94.5281C138.289 95.7251 138.02 96.7862 137.128 98.7532C136.995 99.0348 136.847 99.3275 136.672 99.6396C136.584 99.7956 136.49 99.9566 136.386 100.124C136.262 100.325 136.109 100.557 135.939 100.792C135.196 101.501 134.628 103.57 129.733 104.617C127.199 104.965 125.032 104.111 123.734 103.245C123.399 103.026 123.097 102.795 122.841 102.578C122.65 102.417 122.476 102.256 122.316 102.099C121.996 101.783 121.732 101.48 121.504 101.191C121.284 100.916 121.056 100.587 120.939 100.406C120.815 100.216 120.703 100.032 120.6 99.8529C120.394 99.4951 120.223 99.158 120.07 98.831C119.862 98.389 119.65 97.9408 119.437 97.4912C117.915 94.2905 116.198 90.7227 114.561 87.2502C112.184 82.2087 109.677 76.7967 108.802 75.0089C108.758 74.9063 108.74 74.8343 108.77 74.8182C108.276 73.8799 107.976 72.9855 107.666 72.1077C107.664 72.1025 107.663 72.0974 107.662 72.0922C107.636 72.0186 107.609 71.9448 107.583 71.8708C104.053 67.4984 99.7702 63.5488 95.0849 59.6361C92.827 57.7519 90.5244 55.873 88.2109 54.0171C87.5463 53.5653 86.8713 53.1054 86.2047 52.6533C82.9441 50.4393 79.7578 48.3435 77.4836 47.2606C75.9207 46.5203 73.1346 44.6431 69.9222 42.5616C67.9742 41.2921 65.8804 39.9028 63.8976 38.6961C60.8841 36.804 58.3188 35.8309 57.875 36.1154C57.2106 36.0267 56.582 35.9506 55.9635 35.8818C53.7676 35.6399 51.8387 34.9054 49.8635 34.2044C48.0263 33.5529 46.1562 32.9312 44.1337 32.8321C43.1292 32.7839 42.0532 32.8592 40.9736 32.9849C40.0223 33.0954 39.0676 33.2454 38.1457 33.3818C37.3033 33.5052 35.3736 33.4466 33.7584 33.6984C32.909 33.8265 32.1947 34.0091 31.6042 34.2783C31.3204 34.4556 31.045 34.6304 30.7805 34.8021C29.5289 35.8208 28.6016 36.7426 28.1598 37.3537C27.6975 37.9805 27.8156 38.1306 27.9568 37.8504C27.8244 38.6019 27.5896 41.3212 27.605 43.6154C27.8769 44.8371 28.282 45.928 28.8152 46.7793C29.198 47.387 29.6602 47.9067 30.1367 48.4326C30.7857 49.1464 31.4623 49.8787 32.0336 50.8921C32.4802 51.6916 32.703 52.6316 32.5831 53.2969C32.5273 53.6111 32.3969 53.8473 32.2803 54.0717C32.1466 54.3257 32.0291 54.5624 32.0555 54.8239C32.075 55.0142 32.201 55.2041 32.3547 55.439C32.6008 55.8194 32.9176 56.2925 33.0091 57.0712C33.2246 58.9034 33.4519 60.9151 33.7174 62.9819C33.8592 64.1 34.0135 65.1981 34.1872 66.2636C34.7091 69.5066 35.4595 72.4969 36.3803 74.9749C36.8613 76.2756 37.3778 77.9034 37.9743 79.7626C38.6387 81.8444 39.2675 83.8473 40.0698 85.9803C41.1223 88.7901 42.4267 91.7307 43.7475 94.2427C45.0305 96.6865 46.7701 99.1266 48.4749 101.452C50.53 104.259 52.58 106.98 53.8574 109.591C54.1095 110.109 54.1359 110.951 54.1901 112.032C54.2156 112.778 54.2495 113.637 54.386 114.586C55.417 116.147 56.4522 117.71 57.5128 119.308C58.507 120.807 59.5271 122.34 60.5498 123.876C60.6731 123.952 60.8026 124.035 60.928 124.109C60.9304 124.11 60.9327 124.111 60.9351 124.112C63.803 125.854 67.7426 128.24 70.171 133.744C70.7828 135.135 70.8949 136.233 70.9841 137.203C71.0725 138.158 71.1533 139.014 71.7116 139.971C72.3409 141.051 73.4207 142.093 74.6004 143.233C76.2522 144.825 78.104 146.61 79.1819 148.948C79.2552 149.108 79.3336 149.28 79.4164 149.458C80.2026 151.149 81.3685 153.652 82.1292 156.427C86.536 163.145 90.9324 169.902 95.2951 176.67C101.91 186.942 108.495 197.247 114.957 207.752C115.628 208.843 116.241 209.85 116.903 210.931C120.315 216.526 122.723 222.501 123.51 227.601C123.891 230.133 123.869 232.363 123.419 234.137C123.198 235.029 122.875 235.817 122.428 236.445C122.21 236.769 121.959 237.053 121.662 237.256C121.514 237.355 121.348 237.443 121.165 237.405C121.079 237.36 120.965 237.346 120.944 237.119C120.921 236.921 120.982 236.738 120.915 236.68C120.861 236.615 120.64 236.677 120.447 236.936C120.401 236.997 120.359 237.066 120.324 237.136C120.291 237.196 120.267 237.22 120.241 237.264C120.191 237.345 120.149 237.43 120.112 237.509C119.965 237.761 119.835 237.888 119.687 237.998C119.392 238.203 119.067 238.316 118.717 238.389C118.023 238.545 117.241 238.532 116.393 238.389C114.704 238.113 112.742 237.289 110.628 235.993C106.38 233.364 101.831 228.959 97.9415 223.769C97.1913 222.764 96.4881 221.831 95.7275 220.814C90.1717 213.436 84.4051 205.988 78.6761 198.546C78.3083 198.125 77.9351 197.693 77.5727 197.27C74.8648 194.11 72.0042 191.433 69.1324 188.743C68.4744 188.127 67.8076 187.5 67.1534 186.881Z" fill="black"/>
</svg>
