<svg width="166" height="186" viewBox="0 0 166 186" fill="none" xmlns="http://www.w3.org/2000/svg">
<path d="M20.0754 128.947C19.5519 128.231 19.2898 128.02 18.9017 127.061C18.5139 126.108 17.859 124.252 17.2231 122.349C16.5668 120.375 15.9689 118.434 15.5003 116.916C15.4748 116.835 15.449 116.754 15.4233 116.673C15.1023 115.634 14.7493 114.664 14.3321 113.522C13.34 110.795 11.9766 107.135 9.8412 99.0304C8.95695 96.7678 8.08802 94.4778 7.24396 92.1362C7.14922 91.8733 7.05566 91.6124 6.96332 91.3535C0.459517 72.737 0.0570736 54.784 4.76837e-05 38.0473C0.0223761 32.5065 0.219661 23.9735 4.65986 16.3054C8.79695 8.45255 16.8805 4.19075 22.4018 2.70821C22.8579 2.54979 23.3117 2.40065 23.767 2.25874C26.5054 1.40561 29.2079 0.838975 31.7109 0.419645C40.0583 -0.995598 47.9498 1.40259 52.5502 4.12106C52.9683 4.36275 53.382 4.61285 53.7797 4.86473C61.9895 10.3326 64.4877 15.5163 66.6271 19.2838C72.8768 29.8132 75.3613 40.2055 77.1155 50.5653C77.7254 54.3531 77.724 57.3591 77.7525 60.236C77.7582 61.6596 77.7459 63.0285 77.751 64.2519C77.7534 64.8585 77.7617 65.4352 77.7761 65.8747C77.7829 66.0944 77.792 66.2759 77.7923 66.3579C77.7846 66.4218 77.8051 66.4505 77.6553 65.9544C77.3795 65.0409 76.8729 63.771 75.7067 62.4306C74.713 61.1789 72.2912 59.6323 70.2634 59.3465C69.2722 59.158 68.2326 59.1748 67.6533 59.2378C67.1009 59.2922 66.6253 59.3872 66.2155 59.4938C65.3959 59.71 64.8327 59.9635 64.4036 60.1797C63.2196 60.8138 62.9958 61.1099 62.8227 61.2456C62.5207 61.5325 62.6339 61.459 62.7128 61.3802C62.9138 61.1892 63.2849 60.7684 63.6335 60.352C64.3601 59.4831 65.1499 58.4673 65.9335 57.438C67.5114 55.3611 69.1018 53.1799 70.6875 50.9896C74.4319 45.8097 78.1836 40.5138 82.0151 35.2311C82.4844 34.5839 82.9524 33.9407 83.4251 33.2937C86.8991 28.5232 91.4984 23.6249 97.5004 20.276C101.366 17.808 105.38 16.2142 108.847 15.1186C110.613 14.5602 112.265 14.1164 113.799 13.742C116.495 13.0822 119.046 12.6097 121.366 12.3717C129.721 11.1311 142.511 13.843 148.864 18.4284C149.352 18.7298 149.8 19.0137 150.183 19.2577C150.992 19.7375 151.733 20.2468 152.409 20.7674C160.268 26.591 162.22 33.5156 164.331 38.2788C164.345 38.6509 164.352 39.021 164.356 39.3914C164.359 39.6704 164.367 39.9485 164.379 40.224C165.31 46.6035 165.775 53.6974 163.612 62.7806C163.143 64.7266 162.548 66.7556 161.797 68.8678C160.384 72.9562 157.549 76.1576 155.195 78.3146C152.287 80.9396 150.619 81.4171 149.218 81.9491C148.805 82.0984 148.429 82.2286 148.057 82.3869C146.793 82.9216 145.968 84.0791 144.999 85.4387C144.668 85.9015 144.332 86.3788 143.942 86.8743C142.756 88.3412 141.241 89.8191 138.948 90.8879C129.101 95.4055 126.278 99.1447 124.134 102.067C123.508 102.918 122.945 103.689 122.292 104.369C120.17 106.573 116.469 108.718 113.529 110.139C113.279 110.259 113.015 110.408 112.74 110.58C110.415 112.037 107.323 115.225 105.195 117.923C104.29 119.064 102.852 120.346 101.193 121.891C99.4785 123.488 97.5264 125.372 95.7061 127.649C91.1271 133.416 88.8887 136.655 87.0463 139.242C86.529 139.978 86.0428 140.674 85.5661 141.369C85.4769 141.499 85.3859 141.632 85.2933 141.766C83.8339 143.882 82.0159 146.443 80.205 149.069C77.8969 152.41 75.5889 155.866 73.954 158.607C68.738 164.956 63.4945 171.421 58.246 177.924C55.5461 181.266 52.0878 183.852 48.5776 185.073C45.0683 186.29 41.813 186.046 39.4768 184.359C37.1425 182.668 35.8894 179.656 35.9375 175.947C35.9897 172.234 37.3487 168.136 39.6901 164.506C44.4091 157.202 49.1546 149.887 54.1637 142.626C58.0207 137.042 62.0251 131.493 66.3809 126.048C68.916 122.881 71.5621 119.765 74.3453 116.734C79.6296 110.966 85.395 105.47 91.4052 100.467C92.0237 99.9503 92.6441 99.4402 93.2663 98.9336C95.1716 96.9377 97.1066 94.997 98.9657 93.2056C101.569 90.7015 104.017 88.5068 106.034 86.8342C108.904 84.4588 111.298 83.1922 113.336 82.1172C114.74 81.3773 115.979 80.7297 117.092 79.8924C117.692 79.4414 118.493 78.8135 119.46 78.0559C122.216 75.882 126.508 72.5859 130.464 69.6719C132.297 68.3013 134.168 66.9827 135.937 65.8191C138.593 64.1319 141.798 61.9854 142.343 61.9643C142.491 61.9642 142.571 62.0767 142.681 62.1348C144.545 58.8954 145.629 55.913 145.601 54.3228C145.593 51.5439 145.595 48.9295 145.171 47.0354C144.954 46.2752 144.755 45.5533 144.564 44.8735C143.492 40.9092 142.469 38.5148 141.492 38.0645C140.63 37.6314 140.422 37.4789 140.271 37.1781C139.627 36.7503 139.046 36.3306 138.472 35.9252C136.927 34.8472 135.458 33.8086 132.814 33.0965C129.759 32.3082 127.141 31.8824 124.89 31.5843C122.038 31.2394 119.656 31.1398 116.555 32.0033C116.172 32.1112 115.794 32.2326 115.4 32.3728C111.382 33.7725 108.294 35.2913 105.993 36.3728C104.916 36.8627 103.809 37.6572 102.705 38.6545C101.241 39.9687 99.7783 41.6549 98.2471 43.2385C98.0709 43.4197 97.8917 43.5973 97.7104 43.7718C96.4723 45.0146 95.2216 45.9377 94.0928 46.7801C93.6838 47.0849 93.2933 47.3773 92.9235 47.6721C91.9444 49.0558 90.9641 50.4606 89.9989 51.8637C89.913 52.1428 89.8276 52.4383 89.7382 52.745C89.2856 54.2908 88.7383 56.1832 87.6687 58.278C85.9739 61.5939 83.8706 64.0964 81.5696 66.773C80.6757 67.8098 79.744 68.8857 78.7532 70.0682C78.2409 70.6803 77.7427 71.2828 77.1542 71.9907C76.5054 72.733 76.1556 73.3053 74.5988 74.7656C74.3979 74.9421 74.2422 75.0789 73.9102 75.3309C73.565 75.5885 73.1505 75.8779 72.5354 76.1977C72.0945 76.4226 71.5393 76.6721 70.7757 76.879C70.3934 76.9814 69.9566 77.0716 69.4548 77.1254C68.9855 77.1825 68.016 77.2127 67.1382 77.0556C65.3332 76.8301 63.121 75.4637 62.2101 74.3301C61.1383 73.117 60.6552 71.9355 60.387 71.0478C59.6594 68.4207 59.6844 67.5377 59.4837 66.2606C59.3302 65.077 59.1995 64.0016 59.0671 62.9661C58.625 59.3478 58.0858 56.2475 57.9838 54.6477C57.9793 54.5587 57.9807 54.4735 57.9872 54.3917C57.9783 53.6824 58.1407 53.002 58.2978 52.3293C58.2992 52.3257 58.3006 52.3221 58.302 52.3185C58.3145 52.2647 58.3263 52.2109 58.3385 52.1571C56.8611 46.755 54.9228 41.5094 52.4732 36.9114C52.2035 36.5403 51.9293 36.1702 51.6562 35.813C50.3206 34.052 48.939 32.5675 47.7751 31.9018C46.5432 31.1659 44.2811 28.8262 42.3093 27.973C41.9685 27.8155 41.643 27.6948 41.3392 27.6104C40.3461 27.2865 39.2646 27.1308 38.4726 27.2192C37.8396 27.2873 37.4075 26.871 36.8811 26.4875C36.5122 26.216 36.1035 25.9685 35.6858 25.9582C35.3848 25.9818 35.0873 26.0259 34.7943 26.0971C34.1747 26.2478 33.5527 26.5171 32.9499 26.8125C32.4192 27.0724 31.9034 27.3532 31.4161 27.5879C30.9697 27.8007 29.875 27.9405 29.0782 28.0809C28.5797 28.1646 28.2418 28.2138 28.0582 28.198C28.0393 28.3108 28.0921 28.3466 28.106 28.4478C27.7009 29.4207 27.7374 29.5967 27.6452 30.2488C27.5751 30.8625 27.5207 31.7938 27.5323 32.9032C27.8131 33.5609 28.2136 34.1725 28.7399 34.6592C29.1177 35.0039 29.5735 35.3007 30.042 35.6045C30.6 35.9622 31.1772 36.3253 31.6781 36.8148C31.7505 36.9017 31.8212 36.9914 31.89 37.0845C32.3195 37.6659 32.5099 38.3563 32.3615 38.8345C32.2922 39.0567 32.1513 39.2309 32.024 39.389C31.8782 39.57 31.7486 39.7316 31.761 39.9211C31.7702 40.0574 31.8854 40.1959 32.0249 40.365C32.2477 40.6352 32.5356 40.9858 32.5718 41.5348C32.7067 43.5821 32.7483 45.896 32.8155 48.1366C32.8889 50.6292 32.9983 53.0313 33.2641 54.9078C33.5596 57.0112 33.4893 60.0215 33.5244 62.9869C33.5463 65.0547 33.6194 67.1004 33.8421 68.8088C34.0593 70.4844 34.6564 72.1303 35.2722 73.6686C36.0114 75.5208 36.7749 77.2108 36.9237 78.7937C36.9536 79.1143 36.6613 79.6211 36.3062 80.2672C36.1812 80.4945 36.0484 80.7394 35.919 80.9988C35.7979 81.2896 35.681 81.5995 35.5798 81.9259C36.3728 84.1259 37.1859 86.3668 37.9983 88.6217C38.0837 88.68 38.1706 88.7395 38.2591 88.7993C38.2609 88.8001 38.2627 88.8009 38.2645 88.8017C40.2623 90.1544 42.9989 91.9936 43.308 95.9705C43.387 96.9827 43.1094 97.7479 42.8589 98.4349C42.6146 99.114 42.394 99.7163 42.5676 100.415C42.7642 101.206 43.3787 101.995 44.048 102.858C44.9886 104.072 46.0384 105.427 46.2036 107.151C46.2151 107.27 46.2266 107.397 46.2396 107.528C46.3389 108.523 46.4784 109.908 46.3872 111.468C46.3667 111.869 46.3227 112.257 46.2701 112.681C48.007 117.097 49.8038 127.243 49.0927 132.358C49.0551 133.086 49.0115 133.77 48.9647 134.472C48.3952 142.504 47.7511 150.498 47.0916 158.528C46.7411 162.741 45.371 166.788 43.2127 169.736C41.0512 172.711 38.2957 174.332 35.4696 174.309C32.6412 174.267 29.9314 172.57 27.839 169.559C25.749 166.572 24.4654 162.515 24.194 158.312C23.7574 151.456 23.3089 144.57 22.8895 137.725C22.833 137.366 22.7785 137.003 22.7275 136.639C22.6155 135.856 22.4687 135.087 22.2972 134.317C21.8862 132.609 21.3122 131.046 20.6895 129.903C20.487 129.531 20.2799 129.212 20.0754 128.947Z" fill="black"/>
</svg>
