<svg width="174" height="187" viewBox="0 0 174 187" fill="none" xmlns="http://www.w3.org/2000/svg">
<path d="M32.9915 136.971C29.9071 134.008 26.8418 126.846 25.1821 122.914C25.1511 122.842 25.12 122.77 25.0889 122.699C24.6939 121.765 24.2764 120.904 23.7878 119.898C22.6232 117.497 21.0455 114.247 18.4463 107.156C17.4362 105.217 16.4394 103.269 15.465 101.325C13.8352 98.073 12.2313 94.8052 10.6654 91.5643C1.60958 74.4519 -2.95964 49.221 2.09666 29.9349C2.68731 26.5671 3.91145 23.3519 5.45292 20.6301C5.68797 20.164 5.93546 19.7017 6.19374 19.2459C10.7545 11.2775 17.6959 6.41359 22.0791 3.8254C23.0376 3.23734 23.9862 2.7464 24.8939 2.34527C31.1524 -0.359527 36.4068 -0.248365 40.4283 0.349449C43.5865 0.812075 46.0487 1.78208 48.0198 2.77985C72.5503 18.4303 75.1632 36.7532 85.2809 52.9204C87.3344 56.7351 89.4044 60.4938 91.5415 64.1188C92.1168 65.125 92.8546 66.1255 92.8946 66.136C92.8458 66.1195 92.7729 65.8826 91.6285 65.2792C91.0365 64.9899 90.0316 64.5977 88.6314 64.5584C87.2389 64.4995 85.7004 64.9659 84.8239 65.4694C83.0473 66.5368 83.0275 66.9891 82.9933 66.9437C83.0171 66.9131 83.2599 66.5351 83.6288 65.9644C86.0545 62.262 88.9547 59.3113 91.9049 56.7945C94.6243 54.1612 97.3174 51.9578 99.8522 50.0656C103.417 47.4141 106.705 45.3667 109.509 43.9479C116.285 40.5099 124.347 38.2825 130.318 36.9067C131.287 36.6819 132.207 36.4756 133.066 36.2842C135.285 35.5631 137.527 34.8727 139.741 34.2237C144.556 32.9345 148.946 33.4815 152.476 34.3895C152.901 34.6302 153.313 34.8835 153.715 35.1468C155.764 36.4928 157.742 37.7978 159.876 39.2472C163.923 41.7469 168.518 46.6821 170.569 52.7576C172.165 57.1934 172.768 61.9112 172.919 66.8616C173.003 70.0489 172.407 71.5765 171.947 72.8395C171.809 73.2081 171.681 73.5524 171.577 73.8993C171.223 75.0835 171.636 76.3105 172.132 77.7208C172.524 78.8328 172.967 80.0568 173.143 81.446C173.283 82.9629 173.156 84.6842 172.613 86.3998C170.21 93.2722 167.779 96.174 166.537 98.9593C165.201 101.63 164.61 103.588 164.084 105.309C163.769 106.32 163.486 107.215 163.082 108.049C161.764 110.77 158.846 113.762 156.412 115.747C155.395 116.583 154.228 118.098 153.076 119.849L152.953 120.002C151.876 121.569 150.825 123.313 149.963 124.878C149.273 126.126 148.093 127.553 146.679 129.253C145.219 131.007 143.528 133.03 141.939 135.378C137.924 141.31 135.743 144.43 133.991 146.937C133.491 147.651 133.023 148.316 132.559 148.981C131.09 151.085 129.186 153.624 127.246 156.193C124.922 159.272 122.56 162.381 120.852 164.852C118.961 166.826 117.052 168.793 115.127 170.747C111.578 174.349 108.011 177.887 104.212 181.469C101.211 184.3 97.3261 186.304 93.695 186.727C90.0645 187.151 87.0775 186.037 85.1767 183.878C83.2721 181.709 82.6613 178.577 83.1642 175.231C83.6677 171.888 85.2024 168.567 87.626 165.681C90.6863 162.048 93.6963 158.279 96.7423 154.449C98.5569 152.163 100.389 149.847 102.224 147.534C108.164 140.043 114.18 132.552 120.378 125.244C124.715 120.128 129.089 115.038 133.446 109.982C133.901 109.452 134.336 108.95 134.793 108.419C135.256 107.686 135.737 106.932 136.189 106.217L136.02 106.427C138.475 102.38 140.788 98.5754 142.501 95.9281C144.186 93.3298 145.713 91.795 146.954 90.502C147.806 89.6131 148.519 88.8421 148.986 87.9819C149.24 87.5127 149.543 86.8892 149.842 86.1873C150.202 85.3429 150.535 84.3902 150.69 83.6878C150.852 82.9568 150.835 82.6355 150.838 82.3311C150.729 79.2048 150.822 76.1302 151.06 73.3614C151.322 70.3102 151.844 67.0056 152.096 64.2627C152.5 60.2606 152.156 57.8519 151.524 57.4286C150.979 57.0189 150.696 56.783 150.14 56.3794C148.743 55.4999 147.431 54.7593 146.445 54.3342C145.275 53.8264 144.708 53.7618 144.625 53.8057C143.65 54.0612 142.804 54.3588 142.173 54.7062C140.147 55.8352 138.243 56.1167 135.411 56.6071C133.456 56.9493 131.043 57.3944 127.916 58.3708C124.313 59.5021 121.708 60.1271 119.506 60.6961C116.423 61.5067 114.076 62.203 111.361 64.4342C108.354 66.9137 105.509 69.4041 103.268 71.01C102.234 71.7432 101.229 72.7198 100.35 73.7498C99.7365 74.4666 99.1835 75.2097 98.6993 75.8995C98.4404 76.262 98.064 76.8675 97.3024 77.8271C96.4861 78.7091 95.4557 80.4425 91.8383 81.8015C88.5421 82.9968 84.9391 81.8449 83.5827 80.936C82.0259 79.9861 81.3456 79.1662 80.7746 78.4693C79.7228 77.0974 79.3124 76.0592 78.9431 75.1255C78.7194 74.5416 78.5425 74.0056 78.3837 73.5159C78.1321 73.1241 77.9217 72.7851 77.6896 72.4013C77.0573 71.3572 76.4151 70.286 75.7916 69.2432C75.5834 69.0652 75.3602 68.8802 75.1281 68.6857C73.964 67.7108 72.5413 66.5097 71.2014 64.7954C69.0795 62.0792 67.8962 59.3387 66.651 56.4712C65.6823 54.2407 64.6742 51.9249 63.1574 49.5103C62.1205 47.8599 60.8082 46.0862 59.4882 44.3502C57.5339 41.7757 55.5748 39.3321 54.5631 37.4516C54.1786 36.7368 54.0832 35.9753 53.9873 35.2248C53.9874 35.2211 53.9874 35.2175 53.9875 35.2139C53.9806 35.1623 53.9728 35.1105 53.9656 35.0589C50.8005 30.9847 47.3627 27.1618 44.0277 24.733C43.709 24.5804 43.3726 24.4214 43.061 24.2908C41.5158 23.625 40.2424 23.4566 39.5817 23.8371C39.1873 24.0361 38.7383 24.1993 38.6581 24.4346C38.0773 24.5963 37.5025 24.8357 37.1529 25.1282C36.8734 25.3565 36.7313 25.5986 36.6749 25.8346C35.891 26.5064 35.2038 27.1492 34.6427 27.7476C33.8872 28.5538 32.9197 28.8517 31.9732 29.1728C31.0964 29.4675 30.2301 29.795 29.7508 30.4492C29.5125 30.7751 29.3651 31.1818 29.2669 31.5758C29.1798 31.923 29.1313 32.26 29.0725 32.5353C29.0128 32.7964 28.6159 33.1112 28.2676 33.4287C28.1615 33.527 28.0563 33.6306 27.9583 33.7547C27.7731 34.4357 27.5903 35.1374 27.4199 35.8555C27.1462 39.6141 27.0704 43.1421 27.2859 46.5105C27.6059 47.2119 28.0329 47.8053 28.578 48.254C28.9692 48.5776 29.435 48.8385 29.9129 49.0989C30.5636 49.454 31.2383 49.8073 31.7981 50.2968C32.2357 50.683 32.4414 51.1432 32.3079 51.4872C32.2454 51.6472 32.1108 51.7805 31.9896 51.9026C31.8505 52.0407 31.7273 52.1651 31.7471 52.2978C31.7616 52.3935 31.8818 52.4805 32.0279 52.5869C32.2612 52.7565 32.5632 52.9771 32.627 53.3557C32.8657 54.779 33.0834 56.4224 33.3857 58.0668C33.7174 59.8901 34.1578 61.7207 34.7051 63.1369C35.3115 64.7185 35.769 67.1786 36.3956 69.7175C36.8212 71.4702 37.3356 73.2893 37.9105 74.7683C38.2539 75.6465 38.6979 76.4442 39.2195 77.2715C39.6038 77.8876 40.0389 78.5537 40.4386 79.1511C41.632 80.9514 42.778 82.6772 43.2408 84.3923C43.3329 84.7371 43.1459 85.3413 42.8972 86.0678C42.7232 86.5871 42.5269 87.1862 42.3919 87.8301C43.3851 89.8118 44.3656 91.8058 45.3347 93.8075C45.4227 93.8501 45.5126 93.8945 45.6038 93.9384C45.6057 93.9389 45.6075 93.9394 45.6094 93.9399C47.6724 94.9413 50.4927 96.307 51.0558 99.9402C51.2004 100.866 50.9753 101.604 50.7747 102.271C50.5773 102.925 50.4024 103.514 50.6153 104.13C50.8577 104.83 51.5106 105.476 52.2195 106.175C53.2159 107.158 54.3293 108.255 54.5961 109.788C54.6144 109.893 54.6334 110.006 54.6544 110.123C54.8533 111.231 55.1499 112.873 55.0086 114.729C56.9322 119.039 58.8223 123.342 60.7205 127.642C62.3194 131.266 63.9332 134.91 65.5436 138.437C67.1782 141.983 68.7837 145.472 70.4227 148.968C72.0321 152.413 72.7002 156.199 72.2403 159.536C72.0168 161.219 71.5041 162.687 70.7817 163.955C70.4188 164.586 69.997 165.158 69.5347 165.685C69.3054 165.951 69.0639 166.205 68.8347 166.471C68.7325 166.615 68.6058 166.744 68.5746 166.939C68.5666 167.039 68.6003 167.16 68.6789 167.27C68.7544 167.38 68.8605 167.468 68.8593 167.556C64.998 168.678 62.5945 168.899 59.0939 167.508C55.7939 166.164 52.7432 163.558 50.5398 160.327C48.3067 157.043 46.1265 153.801 43.9367 150.497C42.5676 148.423 41.2328 146.351 39.9257 144.291C39.7131 144.02 39.5079 143.758 39.3021 143.486C37.7746 141.473 35.9859 139.792 34.2124 138.128C33.8001 137.736 33.3972 137.362 32.9915 136.971Z" fill="black"/>
</svg>
