<svg width="222" height="240" viewBox="0 0 222 240" fill="none" xmlns="http://www.w3.org/2000/svg">
<path d="M52.6146 186.409C48.653 182.059 43.2664 172.034 40.1635 166.472C40.1066 166.371 40.0497 166.269 39.9928 166.168C39.2618 164.849 38.525 163.628 37.6563 162.196C35.583 158.773 32.7702 154.189 27.4096 144.035C25.6111 141.226 23.8222 138.394 22.0495 135.516C20.0525 132.272 18.0651 128.977 16.1106 125.57C4.73211 107.366 -0.831776 81.3872 0.10055 61.5325C-0.132833 50.1628 2.54285 37.4329 7.44818 27.2958C9.11196 23.6145 11.3569 20.2331 13.8945 17.3563C14.3136 16.8435 14.7491 16.3351 15.1975 15.8353C19.191 11.3535 24.2457 7.7074 28.9516 5.08612C35.9061 1.17141 43.1264 0.047369 48.0862 1.90735e-05C59.8716 0.0922356 66.4093 2.71631 71.7501 4.59291C76.2638 6.02409 80.5612 7.7376 84.7112 9.637C99.7686 17.4029 102.91 29.0392 107.887 36.8906C116.027 51.2814 119.504 66.9626 120.942 82.1593C121.487 87.7838 121.658 93.7802 121.839 98.7438C121.77 98.0546 121.778 97.0714 120.897 95.2095C120.218 93.4318 116.966 90.3141 113.5 90.2125C110.163 90.0394 108.61 91.1842 107.723 91.711C107.667 91.7486 107.613 91.7857 107.561 91.822C107.507 91.8598 107.519 91.8515 107.498 91.8662C107.469 91.887 107.441 91.9075 107.413 91.9278C107.358 91.9683 107.305 92.008 107.254 92.0467C107.153 92.1241 107.061 92.1979 106.976 92.2682C106.31 92.8293 106.031 93.1732 105.807 93.4346C105.399 93.9321 105.248 94.1941 105.219 94.2333C105.107 94.4079 105.063 94.4876 105.037 94.5328C105 94.5997 105.015 94.5759 105.039 94.532C105.078 94.4602 105.167 94.285 105.238 94.1446C105.318 93.9849 105.404 93.809 105.488 93.6362C105.578 93.4517 105.664 93.2722 105.752 93.0898C106.108 92.3464 106.477 91.5564 106.835 90.786C107.563 89.2188 108.292 87.6227 109.014 86.0325C112.384 78.599 115.73 71.0671 119.053 63.5712C120.353 60.174 121.571 56.8912 122.723 53.7712C123.145 52.6566 123.558 51.6095 124.005 50.5417C126.543 44.4381 129.525 39.1461 132.523 35.0945C139.599 25.1704 151.555 16.7437 161.371 13.1371C162.966 12.5141 164.485 11.9908 165.915 11.543C167.126 11.0885 168.368 10.6632 169.606 10.2795C177.656 7.77529 186.082 8.47446 193.021 10.3186C193.542 10.5844 194.054 10.8614 194.562 11.1478C196.262 12.1046 198.009 13.0567 199.753 13.9671C206.414 17.0018 211.955 23.0953 216.014 29.7521C216.72 30.8763 217.359 32.0692 217.918 33.3079C220.428 38.8224 221.164 44.9626 221.367 50.7858L221.364 51.7143C221.282 53.1004 221.089 54.7008 220.773 56.2205C219.411 62.1047 217.678 63.9644 216.482 65.7213C216.117 66.2142 215.763 66.6905 215.442 67.1436C214.324 68.7384 213.821 70.7203 213.21 72.9895C212.394 75.9746 211.39 79.4551 208.535 83.2202C199.424 95.0956 197.274 101.176 195.682 105.952C195.229 107.313 194.759 108.638 194.225 109.818C193.765 110.83 193.168 111.926 192.473 113.076L192.367 113.245C190.345 116.448 187.631 119.8 185.258 122.38C182.724 125.152 178.966 131.554 176.272 136.522C175.259 138.399 173.592 140.728 171.614 143.455C169.569 146.277 167.202 149.508 164.888 153.144C159.066 162.286 155.94 167.105 153.455 170.971C152.739 172.082 152.094 173.086 151.43 174.122C149.353 177.368 146.699 181.341 144.041 185.36C140.85 190.181 137.646 195.088 135.353 198.9C128.354 208.133 121.466 217.288 114.587 226.647C111.097 231.384 106.844 235.416 102.732 237.753C98.6581 240.03 94.993 240.542 92.5896 238.95C90.1813 237.368 89.207 233.79 89.7491 229.122C90.3314 224.396 92.478 218.86 95.6333 213.798C102.08 203.472 108.595 193.283 115.334 183.186C123.53 170.893 132.058 158.795 140.796 147.018C146.907 138.77 153.032 130.638 158.982 122.491C159.595 121.651 160.206 120.814 160.814 119.974C165.112 112.664 169.209 105.374 172.194 100.286L172.049 100.515C172.055 100.505 172.061 100.496 172.066 100.486C174.523 96.1282 176.695 93.2754 178.572 90.7873C179.862 89.0773 180.968 87.6111 181.932 85.9242C182.442 85.0324 183.095 83.8421 183.906 82.3534C187.111 76.4084 192.808 66.0052 197.151 57.7899C198.662 54.869 199.927 52.496 200.422 50.5913L200.419 51.7864C200.492 50.7243 200.556 49.7152 200.599 48.7659C200.817 44.4638 200.414 41.5903 199.638 40.0074C198.896 38.6315 198.233 37.6238 197.654 36.9744C195.638 34.6771 193.922 33.1735 192.528 32.5029C190.398 31.5768 188.541 30.7993 186.777 30.205C182.233 28.6276 178.588 28.558 176.804 29.3841C176.258 29.6294 175.751 29.8438 175.245 30.0428C173.268 30.7731 171.216 31.2696 168.533 32.2034C166.049 33.0854 162.987 34.3408 159.291 36.9131C155.058 39.9028 152.182 42.3493 149.803 44.5474C146.499 47.6763 144.113 50.3968 142.094 55.2541C141.249 57.3217 140.445 59.4436 139.683 61.5395C138.303 65.25 136.838 68.764 135.356 71.6733C134.264 73.8187 133.152 76.331 131.994 78.9529C130.458 82.4305 128.85 86.0798 127.105 89.2942C125.663 91.9519 124.128 93.9819 122.755 95.7968C122.333 96.3486 121.923 96.8907 121.528 97.4382C121.159 98.246 120.766 99.1017 120.372 99.9453C120.178 100.36 119.98 100.781 119.747 101.261C119.645 101.469 119.507 101.75 119.378 101.999C119.289 102.17 119.219 102.305 119.097 102.521C119.019 102.658 118.935 102.805 118.804 103.008C118.765 103.065 118.61 103.326 118.267 103.746C118.081 103.967 117.855 104.247 117.329 104.694C117.189 104.811 117.061 104.914 116.828 105.078C116.161 105.489 115.055 106.373 112.488 106.352C109.817 106.414 107.033 103.983 106.472 102.524C105.735 101.015 105.747 100.219 105.69 99.6593C105.65 99.0137 105.619 98.3813 105.589 97.7543C105.484 97.3883 105.366 96.9389 105.247 96.5444C104.646 94.443 103.91 91.9555 103.37 88.9012C102.51 84.0905 102.313 79.8932 101.872 75.4663C101.525 72.0424 101.022 68.4618 99.8008 64.5909C98.9674 61.9502 97.7463 59.0538 96.3772 56.3155C94.6179 52.7706 92.5992 49.5159 91.151 47.0023C90.8907 46.5517 90.6524 46.1187 90.4391 45.7081C89.8251 44.5257 89.5604 43.3868 89.3044 42.2744C89.3038 42.2692 89.3032 42.264 89.3026 42.2587C89.2852 42.1832 89.2672 42.1078 89.2498 42.0325C85.0961 35.363 80.4271 29.4822 76.8111 28.5293C76.5276 28.4238 76.2435 28.3194 75.9588 28.2163C75.3 28.0448 74.6391 27.8781 73.9821 27.7187C70.7759 26.9347 67.6786 26.3908 65.6151 26.4326C63.3951 26.4668 58.0786 25.4947 53.1684 25.7166C49.9516 25.8293 47.0446 26.4766 45.2094 27.3981C44.1325 27.9292 43.0745 27.974 41.9547 28.1589C41.9188 28.1649 41.8829 28.171 41.847 28.1773C40.3959 28.6028 38.9634 29.0972 37.7972 30.0401C37.1943 30.5283 36.647 31.1429 36.1378 31.7947C35.689 32.3688 35.271 32.9709 34.8527 33.5499C34.4627 34.0917 33.3695 35.0003 32.3398 36.3306C32.0583 36.6943 31.7799 37.0917 31.5166 37.5276C31.0184 38.4667 30.5283 39.4444 30.0717 40.4491C28.4801 45.3922 27.7236 50.1651 27.6508 55.2779C27.9105 56.3557 28.303 57.289 28.8267 58.0225C29.2026 58.5461 29.6591 58.9871 30.1299 59.4329C30.4891 59.7751 30.8573 60.1102 31.2102 60.4977C31.4894 60.8721 31.7574 61.2782 32.002 61.7368C32.4368 62.5545 32.6344 63.5121 32.4918 64.1625C32.4252 64.4652 32.2866 64.6999 32.1614 64.9126C32.018 65.156 31.8907 65.3735 31.9062 65.6311C31.9176 65.8167 32.0351 66.0045 32.1777 66.2339C32.4056 66.5995 32.7001 67.0743 32.7496 67.8039C32.9332 70.5229 33.0725 73.4748 33.3317 76.237C33.6138 79.3128 34.0591 82.1838 34.6691 84.4099C35.3406 86.904 35.9597 90.5204 36.9612 94.2255C37.6482 96.8032 38.5053 99.4184 39.4433 101.611C40.3603 103.76 41.7115 105.844 43.0903 107.844C43.4243 108.328 43.7633 108.813 44.1014 109.3C45.4588 111.265 46.7372 113.195 47.5675 115.108C47.7737 115.586 47.7362 116.366 47.7024 117.361C47.6697 118.051 47.6395 118.851 47.6959 119.723C49.4409 122.556 51.2021 125.41 52.9636 128.281C53.0772 128.35 53.1938 128.422 53.3117 128.494C53.3139 128.495 53.3162 128.496 53.3184 128.497C55.9672 130.098 59.6039 132.295 61.5014 137.448C61.9814 138.755 61.9899 139.773 61.9942 140.684C61.9988 141.579 62.0028 142.38 62.4577 143.275C62.9731 144.288 63.9291 145.271 64.9697 146.346C66.431 147.857 68.0628 149.551 68.8854 151.767C68.9414 151.918 69.001 152.081 69.0642 152.249C69.6634 153.85 70.5517 156.231 70.9961 158.855C74.5731 165.297 78.0582 171.84 81.3338 178.739C82.2843 180.747 83.2351 182.829 84.1313 184.921C88.0878 194.24 91.8552 203.625 95.2309 213.419C97.2132 219.198 97.9845 225.335 97.1042 230.333C96.2725 235.331 93.5838 238.583 90.7317 238.402C87.8982 238.289 85.2188 237.147 82.2413 234.267C79.288 231.383 76.3345 226.983 73.9718 221.928C70.1196 213.68 65.7688 205.411 61.3033 197.173C61.1046 196.86 60.9049 196.543 60.7055 196.224C60.6435 196.128 60.5812 196.031 60.5189 195.934C58.6943 193.09 56.4648 190.593 54.1916 188.121C53.6635 187.543 53.1427 186.985 52.6146 186.409Z" fill="black"/>
</svg>
