<svg width="191" height="230" viewBox="0 0 191 230" fill="none" xmlns="http://www.w3.org/2000/svg">
<path d="M124.863 203.241C125.787 202.835 126.806 202.281 127.878 201.61C133.244 198.29 139.344 192.254 142.765 188.589C142.841 188.509 142.917 188.429 142.994 188.348C143.976 187.304 144.93 186.346 146.035 185.217C147.571 183.644 149.411 181.739 151.952 178.749C153.769 176.606 155.947 173.909 158.565 170.313C160.605 167.987 162.599 165.598 164.532 163.147C166.025 161.253 167.489 159.32 168.915 157.35C174.492 149.612 179.638 141.159 183.433 131.388C187.857 118.41 188.096 109.868 189.374 100.02C190.516 89.6617 190.663 78.9906 189.368 68.4518C189.065 65.627 188.468 63.5459 187.855 61.6463C187.703 61.1098 187.54 60.5692 187.373 60.0481C184.102 50.1844 178.85 41.561 174.912 36.2353C173.255 34.0387 171.722 32.1253 170.299 30.4215C164.792 23.3719 158.345 22.4131 157.164 21.9432C155.824 21.388 155.065 21.2233 154.343 21.0537C143.271 18.9598 136.934 19.5083 128.748 19.1458C126.005 19.0699 122.923 19.1527 119.398 20.066C115.881 20.9115 112.153 23.12 110.061 24.8913C106.238 28.1426 105.321 30.2701 103.925 32.423C102.669 34.5399 101.646 36.5189 100.666 38.4699C98.7141 42.3806 96.9822 46.1529 95.2425 49.947C93.1377 54.5606 91.4391 58.923 89.6964 63.1929C88.2407 66.7846 86.3427 71.3288 85.3665 72.9398C85.4806 72.7693 85.6235 72.5705 85.8122 72.3417C86.012 72.1048 86.193 71.8884 86.6314 71.4878C87.048 71.1164 87.5442 70.7268 88.2979 70.3198C89.1561 69.8566 90.2986 69.4555 91.546 69.3369C92.8601 69.2009 94.2285 69.4067 95.2959 69.7912C96.2507 70.1291 96.9877 70.5734 97.5385 70.9813C98.495 71.6996 98.9429 72.3021 99.1682 72.5939C99.4236 72.9375 99.5555 73.1685 99.635 73.3096C99.7195 73.4618 99.7633 73.5556 99.788 73.6099C99.8396 73.7251 99.8314 73.7193 99.813 73.6719C99.7211 73.4505 99.5012 72.7201 99.3175 71.9985C98.9343 70.5073 98.5579 68.7622 98.17 66.9814C97.5851 64.3169 97.0083 61.5538 96.1165 58.4639C93.9118 51.7979 91.2733 48.4193 88.8865 44.3776C88.82 44.256 88.7529 44.1337 88.6853 44.0105C86.6275 40.2836 84.6938 36.8954 82.8675 33.7407C80.215 29.1718 77.8036 25.1645 75.5702 21.9478C75.564 21.9389 75.5578 21.9299 75.5516 21.921C71.7863 16.2147 64.7465 9.59748 58.8985 6.24935C55.6604 4.19011 52.2066 2.70939 48.9916 1.8045C47.3004 1.32465 45.674 0.994137 44.1681 0.773208C36.3894 -0.73244 28.7936 -0.089983 21.1034 3.148C20.433 3.44503 19.7832 3.76222 19.1426 4.10416C18.6371 4.51679 18.142 4.95328 17.6662 5.40592C12.1208 10.5105 7.28935 17.9 3.68295 26.0628C3.18216 27.0916 2.80418 28.0802 2.49416 29.0315C0.611038 35.3018 0.490112 40.5104 0.265442 46.7982C0.177734 50.8031 0.746124 52.8232 1.19662 54.4796C1.33041 54.9605 1.4556 55.4404 1.55627 55.8844C1.90018 57.4669 1.47925 59.0979 0.98848 61.0518C0.393906 63.4019 -0.303818 66.1958 0.140732 69.8143C0.171875 70.107 0.210281 70.3944 0.256882 70.6983C0.900681 75.6226 2.4368 80.6206 3.24675 83.1509C5.05383 89.1105 5.51138 92.4907 5.80383 95.4451C5.94153 96.7357 6.07881 97.9219 6.33731 99.0591C7.18848 102.785 9.59444 107.573 11.721 111.067C11.9125 111.381 12.1074 111.743 12.3058 112.15C13.8077 115.212 15.3568 120.511 16.3547 124.724C16.776 126.511 17.6823 128.814 18.7501 131.52C19.8526 134.314 21.1314 137.548 22.2262 141.115C24.9915 150.125 26.4879 154.899 27.6894 158.735C28.031 159.826 28.353 160.849 28.6685 161.864C29.669 165.081 31.0033 169.032 32.3476 173.035C33.9535 177.817 35.5741 182.686 36.6458 186.412C36.948 187.121 37.2464 187.821 37.5405 188.509C41.1865 197.065 44.7901 205.554 48.2026 214.098C50.1012 218.84 52.8688 223.068 56.0292 225.878C59.19 228.686 62.4723 229.805 65.2139 228.914C67.9537 228.023 69.9682 225.208 70.8466 221.03C71.7238 216.855 71.3514 211.628 69.8244 206.558C67.0733 197.429 64.1523 188.432 61.0879 179.48C60.7298 178.432 60.3523 177.339 59.989 176.29C55.7736 164.14 51.3486 152.131 46.636 140.247C43.3373 131.931 39.9697 123.658 36.5686 115.409C36.2201 114.564 35.8675 113.712 35.5173 112.864C34.6478 109.865 33.7727 106.875 32.9348 104.06C31.7407 100.061 30.6353 96.4471 29.67 93.5469C28.3172 89.4786 26.888 86.7207 25.7149 84.4013C24.9125 82.8163 24.2281 81.4318 23.8246 80.0547C23.6392 79.421 23.4334 78.6326 23.2036 77.6399C23.1551 77.4368 23.1075 77.236 23.0603 77.0353C22.3843 74.1342 22.3129 73.4372 22.3375 69.8802C22.3995 65.1722 22.3584 60.0102 22.0805 55.1458C21.8509 51.0902 21.3676 46.3835 21.1134 42.2107C20.8217 38.4347 21.0735 34.834 21.0937 34.5234C21.8494 32.6514 22.3258 31.5193 22.8385 30.699C25.257 26.7118 27.4365 23.5341 29.583 22.1394C29.6852 22.0697 29.7883 22.0025 29.8927 21.9377C32.322 20.486 35.6638 19.8698 37.2311 20.3442C39.2782 20.9257 40.8763 20.864 43.39 21.375C44.5816 21.6363 45.9726 22.0599 47.5951 22.9813C48.561 23.5578 49.5392 24.1717 50.5072 24.8554C54.0335 27.3477 56.2548 29.3175 58.3375 31.3118C59.0286 31.9812 59.6758 32.6415 60.2905 33.3151C62.3332 35.5853 64.0814 37.835 65.8567 41.1893C68.2768 45.7701 70.951 50.4342 73.3198 53.8778C73.4988 54.139 73.6676 54.3797 73.844 54.6274C75.0106 56.2634 76.2169 58.2392 77.2204 60.1064C77.9851 61.522 78.5701 62.8376 78.8186 63.5882C79.1665 64.6685 79.533 65.8913 79.9288 67.0852C80.6976 69.4172 81.6826 71.4255 82.5998 73.2548C82.8848 73.822 83.165 74.3869 83.4294 74.9376C83.6907 76.0362 83.9609 77.1666 84.3954 78.5242C84.6439 79.2469 84.8333 79.93 85.533 81.2313C86.0396 81.8817 85.9849 82.8164 88.9442 84.6361C90.3647 85.5723 93.8882 85.7826 95.6334 84.7496C97.32 83.9096 97.998 83.0064 98.4206 82.5081C98.5941 82.3091 98.7469 82.1175 98.8854 81.9327C99.218 81.5762 99.5268 81.2334 99.8267 80.8913C101.498 79.0003 103.067 77.0602 104.552 74.4758C106.865 70.4279 108.056 66.705 109.369 62.8948C109.957 61.1882 110.57 59.4526 111.299 57.7607C111.883 56.4207 112.527 55.0511 113.271 53.6462C114.476 51.372 115.995 48.8776 117.518 46.5535C118.6 44.9045 119.698 43.3286 120.612 42.1289C121.477 40.9436 122.397 40.1019 121.925 40.4311C121.989 40.3741 122.048 40.3201 122.104 40.2684C122.636 39.7769 122.728 39.3194 122.883 38.8519C122.883 38.8493 122.884 38.8467 122.884 38.8441C122.895 38.8127 122.905 38.782 122.916 38.751C123.764 38.4484 125.301 38.3224 127.545 38.5841C131.864 39.0252 136.179 39.496 140.333 40.072C140.934 40.2195 141.53 40.3682 142.114 40.518C144.91 41.2244 147.816 42.1286 148.084 42.858C148.078 42.946 148.12 43.0889 147.484 42.8998C148.698 43.672 149.925 44.3546 150.302 44.7414C150.5 44.9325 150.482 45.0309 150.331 44.9991C150.182 44.973 149.93 44.8103 149.769 44.6908C150.201 45.4273 150.65 46.1998 151.089 46.9703C152.816 49.9948 154.495 53.1716 155.639 55.8205C156.308 57.3677 157.393 58.5521 158.476 59.7814C159.484 60.925 160.495 62.1172 161.089 63.5924C161.387 64.3348 161.592 65.1579 161.772 66.0094C161.928 66.7542 162.062 67.5154 162.208 68.2215C162.271 68.5327 162.454 69.0034 162.655 69.4963C162.857 69.9713 163.062 70.5304 163.177 70.5675C163.192 70.65 163.207 70.7349 163.222 70.8224C163.505 72.3996 163.783 74.0838 163.981 75.9286C163.899 80.7921 163.476 85.7237 162.784 90.6272C162.365 91.63 161.855 92.4685 161.245 93.1033C160.807 93.566 160.304 93.9253 159.787 94.3036C159.257 94.6916 158.715 95.0701 158.206 95.5682C158.036 95.7492 157.87 95.9419 157.71 96.1496C157.206 96.8007 156.923 97.6167 157.006 98.2058C157.045 98.4795 157.162 98.7009 157.268 98.9013C157.389 99.1317 157.495 99.3414 157.457 99.5673C157.429 99.7305 157.296 99.8838 157.135 100.071C156.875 100.377 156.542 100.763 156.429 101.421C156.014 103.851 155.647 106.603 155.246 109.183C154.805 112.046 154.304 114.705 153.74 116.424C153.447 117.334 153.173 118.424 153.061 119.03C152.636 120.449 152.155 122.031 151.589 123.64C150.835 125.792 149.928 127.986 148.968 129.805C148.028 131.59 146.682 133.269 145.331 134.864C144.388 135.978 143.439 137.058 142.619 138.132C142.019 138.917 141.486 139.701 141.07 140.495C140.869 140.88 140.897 141.565 140.919 142.432C140.936 143.044 140.947 143.753 140.88 144.498C139.186 146.647 137.448 148.78 135.673 150.893C135.564 150.928 135.453 150.964 135.341 151C135.339 151 135.337 151 135.335 151C132.968 151.754 129.831 152.686 127.684 155.976C127.525 156.22 127.37 156.478 127.22 156.75C126.671 157.751 126.573 158.623 126.48 159.41C126.39 160.183 126.305 160.875 125.799 161.518C125.223 162.247 124.249 162.816 123.187 163.423C121.694 164.277 120.031 165.199 119.002 166.795C118.932 166.904 118.857 167.022 118.777 167.143C118.025 168.296 116.9 169.987 116.068 172.019C113.909 174.102 111.721 176.123 109.51 178.043C107.405 179.87 105.215 181.655 102.932 183.436C98.2908 187.067 93.225 190.68 88.038 194.686C84.435 197.466 81.0626 200.308 77.8093 203.074C74.8598 205.583 72.4166 208.468 71.0022 210.931C70.4057 211.806 69.8836 212.684 69.4497 213.554C67.4697 217.232 67.9082 220.242 68.0681 223.022C70.0579 225.494 73.1013 226.84 77.5393 226.629C78.5834 226.584 79.6694 226.451 80.776 226.238C84.7961 225.201 88.3197 223.511 91.5666 221.379C95.0992 219.042 98.5114 216.818 101.867 214.818C105.166 212.842 108.645 210.865 112.244 208.748C112.649 208.55 113.055 208.348 113.459 208.142C116.464 206.611 119.561 205.453 122.696 204.16C123.417 203.862 124.14 203.558 124.863 203.241Z" fill="black"/>
</svg>
